<?xml version="1.0" encoding="utf-8"?>
<svg viewBox="0 0 3176.470588235294 2802.9649965455365" xmlns="http://www.w3.org/2000/svg">
  <g transform="matrix(8.823529, 0, 0, 8.823529, 88.235295, 88.235295)">
    <g id="SvgjsG2137" featurekey="xtWca3-0" transform="matrix(18.096815, 0, 0, 18.096815, 78.105865, -78.167091)" fill="#a0e4b0" style="">
      <path d="M4.98 11 c1.86 0.64 4.04 1.84 3.94 4.54 c-0.08 2.06 -1.04 3.16 -1.8 3.7 c-1.94 1.38 -4.76 0.86 -6.6 -0.22 l0.98 -3.14 c1.3 0.56 3.78 1.64 4.18 -0.2 c0.4 -1.76 -5.28 -1.58 -5.12 -6.24 c0.14 -4.02 4.24 -5.14 7.74 -3.6 l-1.04 2.88 c-0.92 -0.4 -3.26 -0.86 -3.46 0.78 c-0.1 0.72 0.52 1.2 1.18 1.5 z"/>
    </g>
  </g>
</svg>